<svg xmlns="http://www.w3.org/2000/svg" xml:space="preserve" width="1500" height="1500" data-id="lg_g76SaZM4B3KXRvbfNg" data-version="1"><path fill="#111" stroke="transparent" d="M0 0h1500v1500H0z"/><g data-padding="20"><g transform="translate(-191.519 -191.459)scale(1.23802)"><path fill="#fff" d="M1122.492 951.56a152.323 152.323 0 0 1-212.347 140.016l-32.74-19.234-376.474-220.938-.657-.387-12.888-7.546-.464-.271a255.033 255.033 0 1 1 341.102-367.186l.193.31 9.095 13.196.077.117 259.097 376.744a150.93 150.93 0 0 1 26.006 85.179"/><path stroke="transparent" stroke-width="1.82" d="M775.535 667.336q0-22.44-16.71-22.44-7.16 0-19.9 5.25l-21.17 8.76v62.24q57.78-21.49 57.78-53.81m94.56 2.71q0 50.94-50.3 80.86l69.08 90.26h-125.75l-44.73-73.7v73.7h-103.95v-254.21q100.92-7.17 132.28-7.17t47.76 3.83q45.2 10.34 64.62 44.25 10.83 19.42 10.99 42.18"/><rect width="314" height="368.38" x="207.935" y="173.136" fill="none" rx="0" ry="0" transform="translate(382.83 408.99)"/></g><path fill="transparent" stroke="transparent" stroke-width="1.272" d="M299.756 302.145H1250v941.34H299.756z"/></g></svg>